<?xml version="1.0" encoding="UTF-8"?>
<!-- Two beamed eighth notes (♫): a universal "music" glyph for the ambient
     idle overlay. Vector-traced from a clean reference render, then normalised
     to a single white fill so it renders as a template image (tinted by
     foregroundStyle). -->
<svg xmlns="http://www.w3.org/2000/svg" viewBox="0 0 1102.129503 1272.008164">
<g transform="translate(-392.370497,1665.904326) scale(0.100000,-0.100000)"
fill="#ffffff" stroke="none">
<path d="M14325 16610 c-282 -57 -732 -144 -1070 -206 -132 -24 -386 -73 -565
-109 -351 -69 -769 -149 -1025 -196 -88 -16 -356 -67 -595 -114 -239 -46 -604
-116 -810 -155 -206 -39 -523 -100 -705 -135 -325 -63 -798 -153 -945 -180
-542 -99 -1225 -237 -1269 -256 -72 -31 -127 -83 -161 -152 -30 -62 -30 -62
-30 -4170 0 -2259 -2 -4107 -4 -4107 -3 0 -47 27 -98 60 -1056 686 -2669 178
-3048 -959 -371 -1110 665 -2133 2002 -1976 878 103 1573 675 1741 1435 21 95
21 95 24 3718 2 1992 6 3622 9 3622 3 0 276 52 607 115 560 108 822 158 1477
285 140 27 307 58 370 70 63 12 275 52 470 90 337 66 656 127 1610 311 228 44
564 109 745 144 182 36 391 76 465 89 74 14 283 55 465 91 181 36 333 65 337
65 4 0 8 -1327 8 -2950 0 -1622 -2 -2950 -4 -2950 -2 0 -34 21 -72 46 -685
463 -1752 405 -2466 -134 -795 -598 -910 -1610 -258 -2262 1050 -1049 3110
-493 3397 917 17 84 18 321 18 4923 0 4835 0 4835 -27 4892 -55 118 -165 189
-291 187 -34 -1 -170 -23 -302 -49z"/>
</g>
</svg>
